<mxfile host="app.diagrams.net" modified="2023-07-20T13:24:55.725Z" agent="Mozilla/5.0 (Windows NT 10.0; Win64; x64) AppleWebKit/537.36 (KHTML, like Gecko) Chrome/114.0.0.0 Safari/537.36 Edg/114.0.1823.67" etag="gpIrkh2kWyA_hZkWDmN4" version="21.6.3" type="github">
  <diagram name="Page-1" id="2YBvvXClWsGukQMizWep">
    <mxGraphModel dx="1905" dy="1078" grid="1" gridSize="10" guides="1" tooltips="1" connect="1" arrows="1" fold="1" page="1" pageScale="1" pageWidth="850" pageHeight="1100" math="0" shadow="0">
      <root>
        <mxCell id="0" />
        <mxCell id="1" parent="0" />
        <mxCell id="aM9ryv3xv72pqoxQDRHE-1" value="Camera_handler" style="shape=umlLifeline;perimeter=lifelinePerimeter;whiteSpace=wrap;html=1;container=0;dropTarget=0;collapsible=0;recursiveResize=0;outlineConnect=0;portConstraint=eastwest;newEdgeStyle={&quot;edgeStyle&quot;:&quot;elbowEdgeStyle&quot;,&quot;elbow&quot;:&quot;vertical&quot;,&quot;curved&quot;:0,&quot;rounded&quot;:0};" parent="1" vertex="1">
          <mxGeometry x="120" y="30" width="100" height="300" as="geometry" />
        </mxCell>
        <mxCell id="aM9ryv3xv72pqoxQDRHE-5" value="Encoder" style="shape=umlLifeline;perimeter=lifelinePerimeter;whiteSpace=wrap;html=1;container=0;dropTarget=0;collapsible=0;recursiveResize=0;outlineConnect=0;portConstraint=eastwest;newEdgeStyle={&quot;edgeStyle&quot;:&quot;elbowEdgeStyle&quot;,&quot;elbow&quot;:&quot;vertical&quot;,&quot;curved&quot;:0,&quot;rounded&quot;:0};" parent="1" vertex="1">
          <mxGeometry x="260" y="30" width="100" height="300" as="geometry" />
        </mxCell>
        <mxCell id="aM9ryv3xv72pqoxQDRHE-7" value="emit Start()" style="html=1;verticalAlign=bottom;endArrow=block;edgeStyle=elbowEdgeStyle;elbow=vertical;curved=0;rounded=0;" parent="1" edge="1">
          <mxGeometry relative="1" as="geometry">
            <mxPoint x="174" y="120" as="sourcePoint" />
            <Array as="points">
              <mxPoint x="259" y="120" />
            </Array>
            <mxPoint x="304" y="120" as="targetPoint" />
          </mxGeometry>
        </mxCell>
        <mxCell id="sDzrNK94HezupOPT1MQw-12" value="uvc_thread" style="rounded=0;whiteSpace=wrap;html=1;" vertex="1" parent="1">
          <mxGeometry x="410" y="30" width="100" height="40" as="geometry" />
        </mxCell>
        <mxCell id="sDzrNK94HezupOPT1MQw-13" value="" style="endArrow=none;dashed=1;html=1;rounded=0;entryX=0.5;entryY=1;entryDx=0;entryDy=0;" edge="1" parent="1" target="sDzrNK94HezupOPT1MQw-12">
          <mxGeometry width="50" height="50" relative="1" as="geometry">
            <mxPoint x="460" y="330" as="sourcePoint" />
            <mxPoint x="410" y="180" as="targetPoint" />
          </mxGeometry>
        </mxCell>
        <mxCell id="sDzrNK94HezupOPT1MQw-14" value="" style="endArrow=classic;html=1;rounded=0;entryX=0.25;entryY=0;entryDx=0;entryDy=0;" edge="1" parent="1" target="sDzrNK94HezupOPT1MQw-26">
          <mxGeometry width="50" height="50" relative="1" as="geometry">
            <mxPoint x="309.5" y="130" as="sourcePoint" />
            <mxPoint x="250" y="190" as="targetPoint" />
            <Array as="points">
              <mxPoint x="330" y="130" />
              <mxPoint x="330" y="156" />
            </Array>
          </mxGeometry>
        </mxCell>
        <mxCell id="sDzrNK94HezupOPT1MQw-15" value="check State" style="edgeLabel;html=1;align=center;verticalAlign=middle;resizable=0;points=[];" vertex="1" connectable="0" parent="sDzrNK94HezupOPT1MQw-14">
          <mxGeometry x="0.0432" y="1" relative="1" as="geometry">
            <mxPoint x="29" y="-11" as="offset" />
          </mxGeometry>
        </mxCell>
        <mxCell id="sDzrNK94HezupOPT1MQw-26" value="" style="rounded=1;whiteSpace=wrap;html=1;rotation=90;" vertex="1" parent="1">
          <mxGeometry x="218.44" y="196.56" width="183.12" height="10" as="geometry" />
        </mxCell>
        <mxCell id="sDzrNK94HezupOPT1MQw-27" value="Actor" style="shape=umlActor;verticalLabelPosition=bottom;verticalAlign=top;html=1;outlineConnect=0;" vertex="1" parent="1">
          <mxGeometry x="20" y="50" width="30" height="60" as="geometry" />
        </mxCell>
        <mxCell id="sDzrNK94HezupOPT1MQw-31" value="" style="rounded=1;whiteSpace=wrap;html=1;rotation=90;" vertex="1" parent="1">
          <mxGeometry x="58.52" y="206.49" width="222.96" height="10" as="geometry" />
        </mxCell>
        <mxCell id="sDzrNK94HezupOPT1MQw-28" value="" style="endArrow=classic;html=1;rounded=0;" edge="1" parent="1">
          <mxGeometry width="50" height="50" relative="1" as="geometry">
            <mxPoint x="56" y="110" as="sourcePoint" />
            <mxPoint x="165.5" y="110" as="targetPoint" />
          </mxGeometry>
        </mxCell>
        <mxCell id="sDzrNK94HezupOPT1MQw-30" value="Hit Record" style="edgeLabel;html=1;align=center;verticalAlign=middle;resizable=0;points=[];" vertex="1" connectable="0" parent="sDzrNK94HezupOPT1MQw-28">
          <mxGeometry x="-0.1598" y="-1" relative="1" as="geometry">
            <mxPoint y="-11" as="offset" />
          </mxGeometry>
        </mxCell>
        <mxCell id="sDzrNK94HezupOPT1MQw-33" value="" style="endArrow=classic;html=1;rounded=0;" edge="1" parent="1">
          <mxGeometry width="50" height="50" relative="1" as="geometry">
            <mxPoint x="56" y="240" as="sourcePoint" />
            <mxPoint x="166" y="240" as="targetPoint" />
          </mxGeometry>
        </mxCell>
        <mxCell id="sDzrNK94HezupOPT1MQw-34" value="Hit Stop" style="edgeLabel;html=1;align=center;verticalAlign=middle;resizable=0;points=[];" vertex="1" connectable="0" parent="sDzrNK94HezupOPT1MQw-33">
          <mxGeometry x="-0.1598" y="-1" relative="1" as="geometry">
            <mxPoint y="-11" as="offset" />
          </mxGeometry>
        </mxCell>
        <mxCell id="sDzrNK94HezupOPT1MQw-35" value="emit Stop()" style="html=1;verticalAlign=bottom;endArrow=block;edgeStyle=elbowEdgeStyle;elbow=vertical;curved=0;rounded=0;" edge="1" parent="1">
          <mxGeometry relative="1" as="geometry">
            <mxPoint x="175" y="250" as="sourcePoint" />
            <Array as="points">
              <mxPoint x="260" y="250" />
            </Array>
            <mxPoint x="305" y="250" as="targetPoint" />
          </mxGeometry>
        </mxCell>
        <mxCell id="sDzrNK94HezupOPT1MQw-36" value="emit WriteThumbnail()" style="html=1;verticalAlign=bottom;endArrow=block;edgeStyle=elbowEdgeStyle;elbow=vertical;curved=0;rounded=0;" edge="1" parent="1">
          <mxGeometry relative="1" as="geometry">
            <mxPoint x="320" y="286.3" as="sourcePoint" />
            <Array as="points">
              <mxPoint x="416" y="286.3" />
            </Array>
            <mxPoint x="455" y="286.3" as="targetPoint" />
          </mxGeometry>
        </mxCell>
        <mxCell id="sDzrNK94HezupOPT1MQw-37" value="" style="rounded=1;whiteSpace=wrap;html=1;rotation=90;" vertex="1" parent="1">
          <mxGeometry x="345.43" y="195.43" width="229.14" height="10" as="geometry" />
        </mxCell>
        <mxCell id="sDzrNK94HezupOPT1MQw-40" value="Video folder" style="rounded=0;whiteSpace=wrap;html=1;" vertex="1" parent="1">
          <mxGeometry x="560" y="30" width="100" height="40" as="geometry" />
        </mxCell>
        <mxCell id="sDzrNK94HezupOPT1MQw-41" value="Thumbnail folder" style="rounded=0;whiteSpace=wrap;html=1;" vertex="1" parent="1">
          <mxGeometry x="700" y="30" width="100" height="40" as="geometry" />
        </mxCell>
        <mxCell id="sDzrNK94HezupOPT1MQw-42" value="" style="endArrow=none;dashed=1;html=1;rounded=0;entryX=0.5;entryY=1;entryDx=0;entryDy=0;" edge="1" parent="1" source="sDzrNK94HezupOPT1MQw-46">
          <mxGeometry width="50" height="50" relative="1" as="geometry">
            <mxPoint x="609.41" y="320.94" as="sourcePoint" />
            <mxPoint x="609.41" y="70.94" as="targetPoint" />
          </mxGeometry>
        </mxCell>
        <mxCell id="sDzrNK94HezupOPT1MQw-43" value="" style="endArrow=none;dashed=1;html=1;rounded=0;entryX=0.5;entryY=1;entryDx=0;entryDy=0;" edge="1" parent="1">
          <mxGeometry width="50" height="50" relative="1" as="geometry">
            <mxPoint x="749" y="330" as="sourcePoint" />
            <mxPoint x="749.4100000000001" y="70.94" as="targetPoint" />
          </mxGeometry>
        </mxCell>
        <mxCell id="sDzrNK94HezupOPT1MQw-45" value="create shortcut" style="html=1;verticalAlign=bottom;endArrow=block;edgeStyle=elbowEdgeStyle;elbow=vertical;curved=0;rounded=0;" edge="1" parent="1">
          <mxGeometry relative="1" as="geometry">
            <mxPoint x="318" y="170" as="sourcePoint" />
            <Array as="points">
              <mxPoint x="414" y="170" />
            </Array>
            <mxPoint x="602" y="170" as="targetPoint" />
          </mxGeometry>
        </mxCell>
        <mxCell id="sDzrNK94HezupOPT1MQw-48" value="" style="endArrow=none;dashed=1;html=1;rounded=0;" edge="1" parent="1">
          <mxGeometry width="50" height="50" relative="1" as="geometry">
            <mxPoint x="610" y="330" as="sourcePoint" />
            <mxPoint x="610" y="210" as="targetPoint" />
            <Array as="points">
              <mxPoint x="610" y="310" />
            </Array>
          </mxGeometry>
        </mxCell>
        <mxCell id="sDzrNK94HezupOPT1MQw-44" value="save Thumbnail" style="html=1;verticalAlign=bottom;endArrow=block;edgeStyle=elbowEdgeStyle;elbow=vertical;curved=0;rounded=0;" edge="1" parent="1">
          <mxGeometry relative="1" as="geometry">
            <mxPoint x="460" y="310" as="sourcePoint" />
            <Array as="points">
              <mxPoint x="556" y="310" />
            </Array>
            <mxPoint x="744" y="310" as="targetPoint" />
          </mxGeometry>
        </mxCell>
        <mxCell id="sDzrNK94HezupOPT1MQw-46" value="" style="rounded=1;whiteSpace=wrap;html=1;rotation=90;" vertex="1" parent="1">
          <mxGeometry x="556.78" y="209.45" width="106.44" height="10" as="geometry" />
        </mxCell>
        <mxCell id="sDzrNK94HezupOPT1MQw-50" value="complete record" style="html=1;verticalAlign=bottom;endArrow=block;edgeStyle=elbowEdgeStyle;elbow=vertical;curved=0;rounded=0;" edge="1" parent="1">
          <mxGeometry relative="1" as="geometry">
            <mxPoint x="320" y="260" as="sourcePoint" />
            <Array as="points">
              <mxPoint x="405" y="260" />
            </Array>
            <mxPoint x="600" y="260" as="targetPoint" />
          </mxGeometry>
        </mxCell>
        <mxCell id="sDzrNK94HezupOPT1MQw-51" value="" style="endArrow=classic;html=1;rounded=0;" edge="1" parent="1">
          <mxGeometry width="50" height="50" relative="1" as="geometry">
            <mxPoint x="320" y="190" as="sourcePoint" />
            <mxPoint x="450" y="190" as="targetPoint" />
          </mxGeometry>
        </mxCell>
        <mxCell id="sDzrNK94HezupOPT1MQw-52" value="set up frame&amp;nbsp;" style="edgeLabel;html=1;align=center;verticalAlign=middle;resizable=0;points=[];" vertex="1" connectable="0" parent="sDzrNK94HezupOPT1MQw-51">
          <mxGeometry x="-0.3013" y="-2" relative="1" as="geometry">
            <mxPoint x="15" y="-12" as="offset" />
          </mxGeometry>
        </mxCell>
        <mxCell id="sDzrNK94HezupOPT1MQw-55" value="" style="endArrow=classic;html=1;rounded=0;" edge="1" parent="1">
          <mxGeometry width="50" height="50" relative="1" as="geometry">
            <mxPoint x="451" y="213.95" as="sourcePoint" />
            <mxPoint x="321" y="213.95" as="targetPoint" />
          </mxGeometry>
        </mxCell>
        <mxCell id="sDzrNK94HezupOPT1MQw-56" value="frames" style="edgeLabel;html=1;align=center;verticalAlign=middle;resizable=0;points=[];" vertex="1" connectable="0" parent="sDzrNK94HezupOPT1MQw-55">
          <mxGeometry x="-0.3013" y="-2" relative="1" as="geometry">
            <mxPoint x="-24" y="-7" as="offset" />
          </mxGeometry>
        </mxCell>
      </root>
    </mxGraphModel>
  </diagram>
</mxfile>
